<svg width="15" height="15" viewBox="0 0 15 15" fill="none" xmlns="http://www.w3.org/2000/svg">
<g clip-path="url(#clip0_47_578)">
<path d="M2.41442 15C2.64563 14.9994 2.87442 14.9529 3.08758 14.8633C3.30074 14.7738 3.49403 14.6428 3.65629 14.4781L7.50004 10.6569L11.3438 14.4806C11.5907 14.7311 11.9072 14.9014 12.2523 14.9692C12.5973 15.0371 12.9548 14.9995 13.2782 14.8613C13.6047 14.7299 13.8841 14.5031 14.0798 14.2106C14.2754 13.918 14.3783 13.5732 14.375 13.2213V3.125C14.375 2.2962 14.0458 1.50134 13.4598 0.915291C12.8737 0.32924 12.0788 0 11.25 0L3.75004 0C3.33966 0 2.9333 0.0808305 2.55416 0.237876C2.17501 0.394922 1.83052 0.625108 1.54033 0.915291C1.25015 1.20547 1.01997 1.54997 0.86292 1.92911C0.705873 2.30826 0.625043 2.71462 0.625043 3.125V13.2213C0.621543 13.5729 0.724084 13.9175 0.919296 14.21C1.11451 14.5026 1.39333 14.7295 1.71942 14.8613C1.93954 14.9533 2.17583 15.0005 2.41442 15ZM11.25 1.25C11.7473 1.25 12.2242 1.44754 12.5759 1.79918C12.9275 2.15081 13.125 2.62772 13.125 3.125V13.2213C13.1253 13.3254 13.0946 13.4273 13.037 13.514C12.9793 13.6008 12.8973 13.6685 12.8012 13.7086C12.7051 13.7487 12.5992 13.7595 12.497 13.7395C12.3948 13.7195 12.3008 13.6696 12.2269 13.5963L7.93754 9.33313C7.82044 9.21672 7.66204 9.15138 7.49692 9.15138C7.3318 9.15138 7.1734 9.21672 7.05629 9.33313L2.77192 13.595C2.69802 13.6684 2.60403 13.7182 2.50182 13.7382C2.39961 13.7582 2.29377 13.7475 2.19766 13.7073C2.10156 13.6672 2.0195 13.5995 1.96186 13.5128C1.90421 13.426 1.87357 13.3241 1.87379 13.22V3.125C1.87379 2.62772 2.07134 2.15081 2.42297 1.79918C2.7746 1.44754 3.25151 1.25 3.74879 1.25H11.25Z" fill="black"/>
</g>
<defs>
<clipPath id="clip0_47_578">
<rect width="15" height="15" fill="white" transform="matrix(-1 0 0 1 15 0)"/>
</clipPath>
</defs>
</svg>
