<svg width="183" height="48" viewBox="0 0 183 48" fill="none" xmlns="http://www.w3.org/2000/svg">
<g clip-path="url(#clip0_135_56)">
<path d="M22.2379 27.1308C22.8461 27.1308 23.5057 27.7886 23.1973 28.5916C21.5783 32.7347 17.9805 35.8697 12.8151 35.8697C5.72223 35.8697 0 29.9071 0 22.7827C0 15.6583 5.92782 9.59317 13.4747 9.59317C18.6401 9.59317 22.5977 12.173 22.5977 15.2995C22.5977 17.0678 21.3299 18.4346 19.5567 18.4346C15.5562 18.4346 17.0211 11.6604 12.4638 11.6604C9.73122 11.6604 7.24702 14.0865 7.24702 19.7928C7.24702 26.8147 10.9476 31.0091 15.7618 31.0091C18.246 31.0091 20.2163 29.8986 21.4327 27.6263C21.6383 27.276 21.9381 27.1223 22.2465 27.1223L22.2379 27.1308Z" fill="white"/>
<path d="M42.3085 17.9391C39.6273 17.9391 40.2355 13.5398 37.6999 13.5398C35.5755 13.5398 33.9479 16.7261 33.9479 20.4079V31.0689C33.9479 32.8372 34.2049 33.6487 35.0615 33.8452C35.9267 34.0502 35.6183 35.3572 34.9587 35.3572H25.8357C25.1761 35.3572 24.8763 34.0416 25.7329 33.8452C26.5981 33.6401 26.8465 32.8372 26.8465 31.0689V16.4186C26.8465 14.6503 26.6923 13.8388 25.8357 13.6423C24.9705 13.4373 25.1247 12.3267 25.7329 12.1303L31.3095 10.1057C33.0827 10.1057 33.9479 11.5238 33.9479 13.591V13.6423C35.5155 11.2162 37.8969 9.60171 40.4325 9.60171C43.3193 9.60171 45.4009 11.669 45.4009 14.2488C45.4009 16.5211 43.8333 17.9391 42.3085 17.9391Z" fill="white"/>
<path d="M67.4846 27.6348C67.6902 27.2846 67.99 27.1308 68.2984 27.1308C68.9066 27.1308 69.5662 27.7886 69.2578 28.5916C67.6388 32.7347 64.041 35.8697 58.8756 35.8697C51.7314 35.8697 46.1119 29.9071 46.1119 22.7314C46.1119 15.5558 51.7314 9.59317 59.3382 9.59317C64.812 9.59317 68.7096 12.7282 68.7096 16.2648C68.7096 18.1869 67.5446 19.1949 66.1226 19.6476L53.7102 23.4917C54.7724 28.3951 57.762 31.0176 61.711 31.0176C64.298 31.0176 66.2682 29.9071 67.4846 27.6348ZM57.5564 20.1602C59.835 19.4511 61.711 17.6829 61.711 15.2056C61.711 12.9845 60.1434 11.669 58.216 11.669C54.3184 11.669 52.7422 17.2728 53.4018 21.4672L57.5564 20.1516V20.1602Z" fill="white"/>
<path d="M87.7523 9.60171C91.4529 9.60171 94.1341 11.8227 95.4019 14.9578C97.0723 11.7715 100.319 9.60171 103.968 9.60171C109.185 9.60171 112.432 14.0438 112.432 19.1522V31.0774C112.432 32.8457 112.689 33.6572 113.545 33.8537C114.402 34.0587 114.102 35.3657 113.442 35.3657H104.319C103.66 35.3657 103.36 34.0502 104.217 33.8537C105.082 33.6487 105.33 32.8457 105.33 31.0774V19.1522C105.33 14.7528 103.711 12.8393 101.475 12.8393C98.5371 12.8393 96.2071 16.2221 96.2071 19.9124V31.0774C96.2071 32.8457 96.4641 33.6572 97.3207 33.8537C98.1859 34.0587 97.8775 35.3657 97.2179 35.3657H88.0949C87.4353 35.3657 87.1355 34.0502 87.9921 33.8537C88.8573 33.6487 89.1057 32.8457 89.1057 31.0774V19.1522C89.1057 14.7528 87.4867 12.8393 85.2509 12.8393C82.3127 12.8393 79.9827 16.2221 79.9827 19.9124V31.0774C79.9827 32.8457 80.2397 33.6572 81.0963 33.8537C81.9615 34.0587 81.6531 35.3657 80.9935 35.3657H71.8705C71.2109 35.3657 70.9111 34.0502 71.7677 33.8537C72.6329 33.6487 72.8813 32.8457 72.8813 31.0774V16.4271C72.8813 14.6588 72.7271 13.8473 71.8705 13.6508C71.0053 13.4458 71.1595 12.3353 71.7677 12.1388L77.3443 10.1143C79.1175 10.1143 79.9827 11.5323 79.9827 13.5996V13.7021C81.8073 11.2248 84.5914 9.61025 87.7352 9.61025L87.7523 9.60171Z" fill="white"/>
<path d="M131.371 35.8697C128.536 35.8697 126.352 34.708 124.887 33.0934C124.887 34.5627 123.825 35.3657 121.897 35.3657H116.783C116.124 35.3657 115.824 34.0502 116.68 33.8537C117.537 33.6487 117.794 32.8457 117.794 31.0774V6.31287C117.794 4.54458 117.64 3.73305 116.783 3.53657C115.918 3.33155 116.072 2.22104 116.68 2.02456L122.257 0C124.03 0 124.895 1.41805 124.895 3.48532V12.5318C126.36 10.8147 128.596 9.60171 131.38 9.60171C137.462 9.60171 142.627 15.4106 142.627 22.9365C142.627 30.4624 137.659 35.8697 131.38 35.8697H131.371ZM135.021 22.6375C135.021 16.8799 132.793 12.6855 129.247 12.6855C126.917 12.6855 124.887 14.5563 124.887 17.8879V27.7886C124.887 31.0262 126.866 32.8884 129.196 32.8884C132.896 32.8884 135.021 28.2413 135.021 22.6289V22.6375Z" fill="white"/>
<path d="M153.258 3.48532V31.0689C153.258 32.8372 153.515 33.6487 154.372 33.8452C155.228 34.0502 154.929 35.3572 154.269 35.3572H145.146C144.486 35.3572 144.186 34.0416 145.043 33.8452C145.908 33.6401 146.157 32.8372 146.157 31.0689V6.31287C146.157 4.54458 146.003 3.73305 145.146 3.53657C144.289 3.33155 144.435 2.22104 145.043 2.02456L150.62 0C152.393 0 153.258 1.41805 153.258 3.48532Z" fill="white"/>
<path d="M158.938 42.3876C159.392 42.0374 159.897 41.8836 160.411 41.8836C161.627 41.8836 162.895 42.5414 164.163 42.5414C165.431 42.5414 166.544 41.9349 167.504 39.6113L168.515 37.0828L159.392 14.4453C158.578 12.7282 157.927 11.8655 157.01 11.6177C156.145 11.3615 156.453 10.1057 157.113 10.1057H167.041C167.701 10.1057 168.001 11.2162 167.144 11.6177C166.382 11.968 166.433 12.7795 167.195 14.8553L172.361 27.5836L177.175 15.6583C178.083 13.2322 178.032 11.968 176.824 11.6177C175.959 11.3615 176.267 10.1057 176.927 10.1057H182.4C183.06 10.1057 183.308 11.2675 182.503 11.6177C181.544 12.0192 180.679 12.7282 179.822 14.5478L169.688 39.6028C167.658 44.5574 165.431 47.9915 161.936 47.9915C157.987 47.9915 156.967 43.9509 158.946 42.3876H158.938Z" fill="white"/>
</g>
<defs>
<clipPath id="clip0_135_56">
<rect width="183" height="48" fill="white"/>
</clipPath>
</defs>
</svg>
