<svg width="13" height="17" viewBox="0 0 13 17" fill="none" xmlns="http://www.w3.org/2000/svg">
<path d="M10.7578 6.36506L10.0696 7.85739H0.543324L1.08665 6.36506H10.7578ZM9.46108 9.30625L8.75838 10.8131H0.543324L1.08665 9.30625H9.46108ZM12.5254 2.43139L11.6706 4.2642C11.4001 4.03239 11.1055 3.8223 10.7868 3.63395C10.468 3.4456 10.1251 3.29588 9.7581 3.1848C9.39105 3.06889 8.99744 3.01094 8.57727 3.01094C7.80455 3.01094 7.11634 3.21861 6.51264 3.63395C5.90895 4.04929 5.43324 4.6723 5.08551 5.50298C4.74261 6.32883 4.57116 7.35753 4.57116 8.58906C4.57116 9.8206 4.74261 10.8493 5.08551 11.6751C5.43324 12.501 5.90895 13.1216 6.51264 13.5369C7.11634 13.9474 7.80455 14.1527 8.57727 14.1527C9.00227 14.1527 9.3983 14.0972 9.76534 13.9861C10.1372 13.875 10.4753 13.7301 10.7795 13.5514C11.0886 13.3679 11.3663 13.1747 11.6126 12.9719L12.4892 14.7974C11.9773 15.2611 11.3832 15.6112 10.7071 15.8479C10.031 16.0845 9.32102 16.2028 8.57727 16.2028C7.36506 16.2028 6.29048 15.8962 5.35355 15.2828C4.42145 14.6695 3.68977 13.7953 3.15852 12.6604C2.62727 11.5206 2.36165 10.1635 2.36165 8.58906C2.36165 7.0098 2.62727 5.65028 3.15852 4.51051C3.68977 3.37074 4.42145 2.49418 5.35355 1.88082C6.29048 1.26747 7.36506 0.960795 8.57727 0.960795C9.35 0.960795 10.0696 1.08878 10.7361 1.34474C11.4026 1.59588 11.999 1.9581 12.5254 2.43139Z" fill="black"/>
</svg>
