<svg width="20" height="20" viewBox="0 0 20 20" fill="none" xmlns="http://www.w3.org/2000/svg">
<path d="M15.8333 20H4.16667C1.86917 20 0 18.1312 0 15.8341V8.10556C0 6.71832 0.686667 5.4269 1.83667 4.65204L7.66917 0.716116C9.085 -0.238705 10.915 -0.238705 12.3308 0.716116L18.1642 4.65204C19.3133 5.4269 20 6.71749 20 8.10556V15.8341C20 18.1312 18.1308 20 15.8333 20ZM10 1.6676C9.51333 1.6676 9.02667 1.81091 8.60167 2.09836L2.76833 6.03345C2.07833 6.49836 1.66667 7.27239 1.66667 8.10473V15.8333C1.66667 17.2114 2.78833 18.3328 4.16667 18.3328H15.8333C17.2117 18.3328 18.3333 17.2114 18.3333 15.8333V8.10556C18.3333 7.27322 17.9217 6.49836 17.2325 6.03429L11.3983 2.09836C10.9733 1.81091 10.4867 1.6676 10 1.6676Z" fill="black"/>
</svg>
