<svg width="17" height="17" viewBox="0 0 17 17" fill="none" xmlns="http://www.w3.org/2000/svg">
<g clip-path="url(#clip0_43_94)">
<path d="M13.4583 5.967V4.95833C13.4583 3.6433 12.9359 2.38213 12.0061 1.45226C11.0762 0.522394 9.81504 0 8.50001 0C7.18497 0 5.9238 0.522394 4.99393 1.45226C4.06407 2.38213 3.54167 3.6433 3.54167 4.95833V5.967C2.9108 6.24233 2.37384 6.69554 1.99644 7.27119C1.61905 7.84685 1.41758 8.52 1.41667 9.20833V13.4583C1.4178 14.3973 1.7913 15.2975 2.45524 15.9614C3.11919 16.6254 4.01938 16.9989 4.95834 17H12.0417C12.9806 16.9989 13.8808 16.6254 14.5448 15.9614C15.2087 15.2975 15.5822 14.3973 15.5833 13.4583V9.20833C15.5824 8.52 15.381 7.84685 15.0036 7.27119C14.6262 6.69554 14.0892 6.24233 13.4583 5.967ZM4.95834 4.95833C4.95834 4.01902 5.33148 3.11819 5.99567 2.454C6.65986 1.78981 7.5607 1.41667 8.50001 1.41667C9.43931 1.41667 10.3402 1.78981 11.0043 2.454C11.6685 3.11819 12.0417 4.01902 12.0417 4.95833V5.66667H4.95834V4.95833ZM14.1667 13.4583C14.1667 14.0219 13.9428 14.5624 13.5443 14.9609C13.1458 15.3595 12.6053 15.5833 12.0417 15.5833H4.95834C4.39475 15.5833 3.85425 15.3595 3.45574 14.9609C3.05722 14.5624 2.83334 14.0219 2.83334 13.4583V9.20833C2.83334 8.64475 3.05722 8.10425 3.45574 7.70573C3.85425 7.30722 4.39475 7.08333 4.95834 7.08333H12.0417C12.6053 7.08333 13.1458 7.30722 13.5443 7.70573C13.9428 8.10425 14.1667 8.64475 14.1667 9.20833V13.4583Z" fill="black"/>
<path d="M8.50001 9.91675C8.31214 9.91675 8.13198 9.99138 7.99914 10.1242C7.8663 10.2571 7.79167 10.4372 7.79167 10.6251V12.0417C7.79167 12.2296 7.8663 12.4098 7.99914 12.5426C8.13198 12.6755 8.31214 12.7501 8.50001 12.7501C8.68787 12.7501 8.86803 12.6755 9.00087 12.5426C9.13371 12.4098 9.20834 12.2296 9.20834 12.0417V10.6251C9.20834 10.4372 9.13371 10.2571 9.00087 10.1242C8.86803 9.99138 8.68787 9.91675 8.50001 9.91675Z" fill="black"/>
</g>
<defs>
<clipPath id="clip0_43_94">
<rect width="17" height="17" fill="white"/>
</clipPath>
</defs>
</svg>
