<svg width="111" height="29" viewBox="0 0 111 29" fill="none" xmlns="http://www.w3.org/2000/svg">
<g clip-path="url(#clip0_135_64)">
<path d="M13.4886 16.3915C13.8575 16.3915 14.2575 16.7889 14.0705 17.2741C13.0885 19.7772 10.9062 21.6713 7.77307 21.6713C3.47086 21.6713 0 18.0689 0 13.7645C0 9.46022 3.59556 5.79587 8.17315 5.79587C11.3063 5.79587 13.7068 7.35451 13.7068 9.24346C13.7068 10.3118 12.9378 11.1376 11.8622 11.1376C9.43575 11.1376 10.3243 7.04484 7.56003 7.04484C5.90254 7.04484 4.39573 8.51059 4.39573 11.9582C4.39573 16.2006 6.64036 18.7346 9.56046 18.7346C11.0673 18.7346 12.2623 18.0637 13.0001 16.6909C13.1248 16.4793 13.3067 16.3864 13.4938 16.3864L13.4886 16.3915Z" fill="black"/>
<path d="M25.6625 10.8382C24.0362 10.8382 24.4051 8.18027 22.8671 8.18027C21.5786 8.18027 20.5913 10.1054 20.5913 12.3298V18.7708C20.5913 19.8391 20.7472 20.3294 21.2668 20.4481C21.7916 20.572 21.6045 21.3616 21.2044 21.3616H15.6708C15.2707 21.3616 15.0889 20.5668 15.6085 20.4481C16.1333 20.3242 16.2839 19.8391 16.2839 18.7708V9.91955C16.2839 8.85121 16.1904 8.36091 15.6708 8.24221C15.146 8.11834 15.2396 7.4474 15.6085 7.3287L18.991 6.10553C20.0665 6.10553 20.5913 6.96226 20.5913 8.21124V8.24221C21.5422 6.77647 22.9866 5.80103 24.5246 5.80103C26.2756 5.80103 27.5382 7.05 27.5382 8.60864C27.5382 9.98148 26.5874 10.8382 25.6625 10.8382Z" fill="black"/>
<path d="M40.9333 16.696C41.058 16.4844 41.2398 16.3915 41.4269 16.3915C41.7958 16.3915 42.1959 16.7889 42.0088 17.2741C41.0268 19.7772 38.8445 21.6713 35.7114 21.6713C31.378 21.6713 27.9695 18.0689 27.9695 13.7336C27.9695 9.39829 31.378 5.79587 35.992 5.79587C39.3122 5.79587 41.6763 7.68998 41.6763 9.82666C41.6763 10.9879 40.9697 11.5969 40.1071 11.8704L32.5783 14.1929C33.2226 17.1554 35.0359 18.7398 37.4312 18.7398C39.0004 18.7398 40.1955 18.0689 40.9333 16.696ZM34.9112 12.1801C36.2933 11.7517 37.4312 10.6834 37.4312 9.18668C37.4312 7.84481 36.4804 7.05001 35.3113 7.05001C32.9472 7.05001 31.9911 10.4357 32.3912 12.9697L34.9112 12.1749V12.1801Z" fill="black"/>
<path d="M53.2268 5.80103C55.4714 5.80103 57.0978 7.1429 57.8667 9.03701C58.8799 7.11194 60.8492 5.80103 63.0626 5.80103C66.2269 5.80103 68.1962 8.48478 68.1962 11.5711V18.7759C68.1962 19.8443 68.3521 20.3346 68.8717 20.4533C69.3912 20.5771 69.2094 21.3668 68.8093 21.3668H63.2757C62.8756 21.3668 62.6937 20.572 63.2133 20.4533C63.7381 20.3294 63.8888 19.8443 63.8888 18.7759V11.5711C63.8888 8.91315 62.9068 7.75707 61.5506 7.75707C59.7684 7.75707 58.3552 9.80085 58.3552 12.0304V18.7759C58.3552 19.8443 58.511 20.3346 59.0306 20.4533C59.5554 20.5771 59.3684 21.3668 58.9683 21.3668H53.4346C53.0346 21.3668 52.8527 20.572 53.3723 20.4533C53.8971 20.3294 54.0478 19.8443 54.0478 18.7759V11.5711C54.0478 8.91315 53.0657 7.75707 51.7096 7.75707C49.9274 7.75707 48.5141 9.80085 48.5141 12.0304V18.7759C48.5141 19.8443 48.67 20.3346 49.1896 20.4533C49.7144 20.5771 49.5273 21.3668 49.1272 21.3668H43.5936C43.1935 21.3668 43.0117 20.572 43.5313 20.4533C44.056 20.3294 44.2067 19.8443 44.2067 18.7759V9.92471C44.2067 8.85637 44.1132 8.36607 43.5936 8.24737C43.0688 8.1235 43.1623 7.45256 43.5313 7.33386L46.9138 6.11069C47.9893 6.11069 48.5141 6.96743 48.5141 8.2164V8.27834C49.6209 6.78163 51.3095 5.80619 53.2164 5.80619L53.2268 5.80103Z" fill="black"/>
<path d="M79.6843 21.6713C77.9645 21.6713 76.6395 20.9694 75.751 19.994C75.751 20.8817 75.1067 21.3668 73.9377 21.3668H70.8357C70.4356 21.3668 70.2538 20.572 70.7734 20.4533C71.2929 20.3294 71.4488 19.8443 71.4488 18.7759V3.81402C71.4488 2.74568 71.3553 2.25538 70.8357 2.13668C70.3109 2.01281 70.4044 1.34188 70.7734 1.22317L74.1559 0C75.2314 0 75.7562 0.856736 75.7562 2.10571V7.57128C76.6447 6.5339 78.0008 5.80103 79.6895 5.80103C83.3786 5.80103 86.5117 9.31055 86.5117 13.8574C86.5117 18.4043 83.4981 21.6713 79.6895 21.6713H79.6843ZM81.8978 13.6768C81.8978 10.1983 80.5468 7.66418 78.3957 7.66418C76.9825 7.66418 75.751 8.79445 75.751 10.8073V16.7889C75.751 18.745 76.9513 19.8701 78.3646 19.8701C80.6092 19.8701 81.8978 17.0625 81.8978 13.6717V13.6768Z" fill="black"/>
<path d="M92.9598 2.10571V18.7708C92.9598 19.8391 93.1157 20.3294 93.6353 20.4481C94.1549 20.572 93.973 21.3616 93.5729 21.3616H88.0393C87.6392 21.3616 87.4574 20.5668 87.977 20.4481C88.5018 20.3243 88.6524 19.8391 88.6524 18.7708V3.81402C88.6524 2.74568 88.5589 2.25538 88.0393 2.13668C87.5197 2.01281 87.6081 1.34188 87.977 1.22317L91.3595 0C92.435 0 92.9598 0.856736 92.9598 2.10571Z" fill="black"/>
<path d="M96.4047 25.6092C96.6801 25.3976 96.9866 25.3047 97.2984 25.3047C98.0362 25.3047 98.8052 25.7021 99.5742 25.7021C100.343 25.7021 101.019 25.3356 101.601 23.9318L102.214 22.4042L96.6801 8.72735C96.1865 7.68998 95.7916 7.16871 95.2356 7.01904C94.7108 6.86421 94.8979 6.10553 95.298 6.10553H101.32C101.72 6.10553 101.902 6.77647 101.382 7.01904C100.92 7.23064 100.951 7.72094 101.414 8.97508L104.547 16.6651L107.467 9.46022C108.018 7.99448 107.986 7.23064 107.254 7.01904C106.729 6.86421 106.916 6.10553 107.316 6.10553H110.636C111.036 6.10553 111.187 6.80743 110.699 7.01904C110.117 7.26161 109.592 7.68998 109.072 8.78928L102.926 23.9267C101.694 26.9201 100.343 28.9948 98.2233 28.9948C95.828 28.9948 95.2097 26.5537 96.4099 25.6092H96.4047Z" fill="black"/>
</g>
<defs>
<clipPath id="clip0_135_64">
<rect width="111" height="29" fill="white"/>
</clipPath>
</defs>
</svg>
