<svg width="17" height="16" viewBox="0 0 17 16" fill="none" xmlns="http://www.w3.org/2000/svg">
<path d="M13.4583 0H3.54167C2.6027 0.00112473 1.70252 0.374625 1.03857 1.03857C0.374625 1.70252 0.00112473 2.6027 0 3.54167L0 12.0417C0.00112473 12.9806 0.374625 13.8808 1.03857 14.5448C1.70252 15.2087 2.6027 15.5822 3.54167 15.5833H13.4583C14.3973 15.5822 15.2975 15.2087 15.9614 14.5448C16.6254 13.8808 16.9989 12.9806 17 12.0417V3.54167C16.9989 2.6027 16.6254 1.70252 15.9614 1.03857C15.2975 0.374625 14.3973 0.00112473 13.4583 0ZM3.54167 1.41667H13.4583C13.8825 1.4175 14.2967 1.54524 14.6476 1.78344C14.9985 2.02165 15.2701 2.35942 15.4275 2.75329L10.0031 8.17842C9.60389 8.57602 9.06342 8.79925 8.5 8.79925C7.93658 8.79925 7.39611 8.57602 6.99692 8.17842L1.5725 2.75329C1.72986 2.35942 2.00148 2.02165 2.35241 1.78344C2.70334 1.54524 3.11753 1.4175 3.54167 1.41667ZM13.4583 14.1667H3.54167C2.97808 14.1667 2.43758 13.9428 2.03906 13.5443C1.64055 13.1458 1.41667 12.6053 1.41667 12.0417V4.60417L5.99533 9.18C6.66019 9.84318 7.56093 10.2156 8.5 10.2156C9.43907 10.2156 10.3398 9.84318 11.0047 9.18L15.5833 4.60417V12.0417C15.5833 12.6053 15.3595 13.1458 14.9609 13.5443C14.5624 13.9428 14.0219 14.1667 13.4583 14.1667Z" fill="black"/>
</svg>
