<svg width="10" height="12" viewBox="0 0 10 12" fill="none" xmlns="http://www.w3.org/2000/svg">
<path d="M5 11.9408L4.65316 11.6435C4.17501 11.2432 0 7.63748 0 5C0 2.23858 2.23858 0 5 0C7.76142 0 10 2.23858 10 5C10 7.6375 5.82499 11.2432 5.34882 11.6455L5 11.9408ZM5 1.08115C2.83671 1.0836 1.08362 2.83668 1.08117 4.99998C1.08117 6.6569 3.6498 9.3038 5 10.5153C6.35023 9.30331 8.91883 6.6549 8.91883 4.99998C8.91638 2.83668 7.16332 1.08362 5 1.08115Z" fill="#5D5D5D"/>
<path d="M4.99999 6.98186C3.90539 6.98186 3.01804 6.0945 3.01804 4.9999C3.01804 3.9053 3.90539 3.01794 4.99999 3.01794C6.0946 3.01794 6.98195 3.9053 6.98195 4.9999C6.98195 6.0945 6.09462 6.98186 4.99999 6.98186ZM4.99999 4.0089C4.45269 4.0089 4.00901 4.45258 4.00901 4.99988C4.00901 5.54718 4.45269 5.99086 4.99999 5.99086C5.54729 5.99086 5.99097 5.54718 5.99097 4.99988C5.99097 4.45258 5.54732 4.0089 4.99999 4.0089Z" fill="#5D5D5D"/>
</svg>
