<svg width="9" height="11" viewBox="0 0 9 11" fill="none" xmlns="http://www.w3.org/2000/svg">
<path d="M4.125 5.50001C4.6689 5.50001 5.20059 5.33872 5.65282 5.03655C6.10506 4.73437 6.45753 4.30488 6.66568 3.80239C6.87382 3.29989 6.92828 2.74695 6.82217 2.21351C6.71606 1.68006 6.45414 1.19005 6.06955 0.805459C5.68496 0.420864 5.19495 0.158951 4.6615 0.0528418C4.12805 -0.0532677 3.57512 0.00119154 3.07262 0.209333C2.57013 0.417474 2.14063 0.769949 1.83846 1.22218C1.53628 1.67442 1.375 2.20611 1.375 2.75C1.37573 3.47913 1.66569 4.17818 2.18126 4.69375C2.69683 5.20931 3.39588 5.49928 4.125 5.50001ZM4.125 0.916669C4.4876 0.916669 4.84206 1.02419 5.14355 1.22564C5.44504 1.42709 5.68002 1.71342 5.81878 2.04842C5.95755 2.38342 5.99385 2.75204 5.92311 3.10767C5.85237 3.4633 5.67776 3.78997 5.42137 4.04637C5.16497 4.30277 4.8383 4.47737 4.48267 4.54811C4.12704 4.61885 3.75841 4.58255 3.42342 4.44379C3.08842 4.30503 2.80209 4.07004 2.60064 3.76855C2.39919 3.46706 2.29167 3.1126 2.29167 2.75C2.29167 2.26377 2.48482 1.79746 2.82864 1.45364C3.17246 1.10982 3.63877 0.916669 4.125 0.916669Z" fill="black"/>
<path d="M4.12501 6.41669C3.03136 6.4179 1.98285 6.85289 1.20953 7.62621C0.4362 8.39954 0.00121314 9.44805 0 10.5417C0 10.6632 0.0482886 10.7798 0.134243 10.8658C0.220197 10.9517 0.336776 11 0.458334 11C0.579892 11 0.696471 10.9517 0.782425 10.8658C0.868379 10.7798 0.916668 10.6632 0.916668 10.5417C0.916668 9.69079 1.25469 8.87474 1.85637 8.27306C2.45805 7.67138 3.2741 7.33335 4.12501 7.33335C4.97591 7.33335 5.79196 7.67138 6.39364 8.27306C6.99532 8.87474 7.33334 9.69079 7.33334 10.5417C7.33334 10.6632 7.38163 10.7798 7.46759 10.8658C7.55354 10.9517 7.67012 11 7.79168 11C7.91323 11 8.02981 10.9517 8.11577 10.8658C8.20172 10.7798 8.25001 10.6632 8.25001 10.5417C8.2488 9.44805 7.81381 8.39954 7.04048 7.62621C6.26716 6.85289 5.21865 6.4179 4.12501 6.41669Z" fill="black"/>
</svg>
