<svg width="16" height="16" viewBox="0 0 16 16" fill="none" xmlns="http://www.w3.org/2000/svg">
<g clip-path="url(#clip0_45_97)">
<path d="M8 0C6.41775 0 4.87104 0.469192 3.55544 1.34824C2.23985 2.22729 1.21447 3.47672 0.608967 4.93853C0.00346629 6.40034 -0.15496 8.00887 0.153721 9.56072C0.462403 11.1126 1.22433 12.538 2.34315 13.6569C3.46197 14.7757 4.88743 15.5376 6.43928 15.8463C7.99113 16.155 9.59966 15.9965 11.0615 15.391C12.5233 14.7855 13.7727 13.7602 14.6518 12.4446C15.5308 11.129 16 9.58225 16 8C15.9977 5.87897 15.1541 3.84547 13.6543 2.34568C12.1545 0.845886 10.121 0.00229405 8 0ZM8 14.6667C6.68146 14.6667 5.39253 14.2757 4.2962 13.5431C3.19987 12.8106 2.34539 11.7694 1.84081 10.5512C1.33622 9.33305 1.2042 7.99261 1.46144 6.6994C1.71867 5.40619 2.35361 4.21831 3.28596 3.28596C4.21831 2.35361 5.4062 1.71867 6.6994 1.46143C7.99261 1.2042 9.33305 1.33622 10.5512 1.8408C11.7694 2.34539 12.8106 3.19987 13.5431 4.2962C14.2757 5.39253 14.6667 6.68146 14.6667 8C14.6647 9.76752 13.9617 11.4621 12.7119 12.7119C11.4621 13.9617 9.76752 14.6647 8 14.6667Z" fill="black"/>
<path d="M8.478 3.37522C8.09355 3.30518 7.6984 3.32048 7.32052 3.42005C6.94265 3.51962 6.59127 3.70102 6.29126 3.95142C5.99125 4.20183 5.74994 4.5151 5.5844 4.86909C5.41887 5.22307 5.33315 5.60911 5.33333 5.99989C5.33333 6.1767 5.40357 6.34627 5.52859 6.47129C5.65361 6.59632 5.82318 6.66656 6 6.66656C6.17681 6.66656 6.34638 6.59632 6.4714 6.47129C6.59642 6.34627 6.66666 6.1767 6.66666 5.99989C6.66649 5.80374 6.70961 5.60997 6.79292 5.43239C6.87624 5.25482 6.99771 5.09781 7.14867 4.97257C7.29964 4.84733 7.47637 4.75695 7.66628 4.70785C7.85618 4.65876 8.05458 4.65217 8.24733 4.68856C8.51069 4.73968 8.75283 4.86815 8.94283 5.05755C9.13282 5.24695 9.26205 5.48869 9.31399 5.75189C9.36646 6.02816 9.33023 6.31394 9.2105 6.56838C9.09076 6.82282 8.89364 7.03289 8.64733 7.16856C8.23944 7.40487 7.90239 7.74623 7.67128 8.15709C7.44017 8.56795 7.32347 9.03326 7.33333 9.50456V9.99989C7.33333 10.1767 7.40357 10.3463 7.52859 10.4713C7.65361 10.5963 7.82318 10.6666 7.99999 10.6666C8.17681 10.6666 8.34638 10.5963 8.4714 10.4713C8.59642 10.3463 8.66666 10.1767 8.66666 9.99989V9.50456C8.6583 9.27256 8.7112 9.04246 8.82004 8.83742C8.92888 8.63237 9.08982 8.45962 9.28666 8.33656C9.76967 8.07127 10.1586 7.66286 10.4001 7.16749C10.6415 6.67212 10.7235 6.11413 10.6348 5.57024C10.5462 5.02635 10.2912 4.52328 9.90499 4.13022C9.51876 3.73715 9.02025 3.4734 8.478 3.37522Z" fill="black"/>
<path d="M8.66666 11.9999C8.66666 11.6317 8.36818 11.3333 7.99999 11.3333C7.63181 11.3333 7.33333 11.6317 7.33333 11.9999C7.33333 12.3681 7.63181 12.6666 7.99999 12.6666C8.36818 12.6666 8.66666 12.3681 8.66666 11.9999Z" fill="black"/>
</g>
<defs>
<clipPath id="clip0_45_97">
<rect width="16" height="16" fill="white"/>
</clipPath>
</defs>
</svg>
