<svg width="20" height="20" viewBox="0 0 20 20" fill="none" xmlns="http://www.w3.org/2000/svg">
<g clip-path="url(#clip0_43_86)">
<path d="M17.5 19.9167L14.4475 17.8242L12.2275 19.345L10.0058 17.8233L7.78417 19.3433L5.55833 17.8217L2.5 19.9167V2.5C2.5 1.83696 2.76339 1.20107 3.23223 0.732233C3.70107 0.263392 4.33696 0 5 0L15 0C15.663 0 16.2989 0.263392 16.7678 0.732233C17.2366 1.20107 17.5 1.83696 17.5 2.5V19.9167ZM5.55833 15.8017L7.78333 17.3233L10.0058 15.8017L12.2275 17.3233L14.4483 15.8008L15.8333 16.75V2.5C15.8333 2.27899 15.7455 2.06702 15.5893 1.91074C15.433 1.75446 15.221 1.66667 15 1.66667H5C4.77899 1.66667 4.56702 1.75446 4.41074 1.91074C4.25446 2.06702 4.16667 2.27899 4.16667 2.5V16.75L5.55833 15.8017Z" fill="black"/>
<path d="M14.1667 6.66675H5.83333V8.33341H14.1667V6.66675Z" fill="black"/>
<path d="M12.5 10H5.83333V11.6667H12.5V10Z" fill="black"/>
</g>
<defs>
<clipPath id="clip0_43_86">
<rect width="20" height="20" fill="white"/>
</clipPath>
</defs>
</svg>
