<svg width="17" height="17" viewBox="0 0 17 17" fill="none" xmlns="http://www.w3.org/2000/svg">
<g clip-path="url(#clip0_47_574)">
<path d="M8.49998 1.41662C9.43959 1.4197 10.3693 1.6091 11.2352 1.97385C12.1011 2.33861 12.8861 2.87148 13.5447 3.54162H11.3333C11.1455 3.54162 10.9653 3.61625 10.8324 3.74908C10.6996 3.88192 10.625 4.06209 10.625 4.24995C10.625 4.43781 10.6996 4.61798 10.8324 4.75082C10.9653 4.88366 11.1455 4.95828 11.3333 4.95828H14.2679C14.6167 4.9581 14.9512 4.81945 15.1978 4.57281C15.4445 4.32617 15.5831 3.99171 15.5833 3.64291V0.708285C15.5833 0.520423 15.5087 0.340256 15.3758 0.207417C15.243 0.0745791 15.0628 -4.8666e-05 14.875 -4.8666e-05C14.6871 -4.8666e-05 14.507 0.0745791 14.3741 0.207417C14.2413 0.340256 14.1666 0.520423 14.1666 0.708285V2.1802C12.9959 1.12581 11.5547 0.418158 10.0045 0.136482C8.45437 -0.145194 6.85638 0.0102306 5.38954 0.585352C3.92269 1.16047 2.64491 2.13258 1.69928 3.39281C0.753653 4.65305 0.177519 6.15164 0.0353973 7.72078C0.0262481 7.81942 0.037746 7.91889 0.0691586 8.01284C0.100571 8.10679 0.15121 8.19317 0.217847 8.26647C0.284485 8.33978 0.365661 8.39839 0.456203 8.43859C0.546744 8.47879 0.644667 8.49969 0.743731 8.49995C0.91698 8.50216 1.08482 8.43963 1.21439 8.3246C1.34396 8.20957 1.42594 8.05033 1.44427 7.87803C1.60196 6.11481 2.41325 4.47428 3.71879 3.27871C5.02432 2.08314 6.72973 1.41895 8.49998 1.41662Z" fill="black"/>
<path d="M16.2569 8.50006C16.0837 8.49785 15.9158 8.56038 15.7863 8.67541C15.6567 8.79044 15.5747 8.94968 15.5564 9.12197C15.4393 10.4701 14.9379 11.7563 14.1118 12.8281C13.2857 13.8999 12.1695 14.7122 10.8956 15.1687C9.62177 15.6252 8.24368 15.7067 6.92487 15.4035C5.60607 15.1004 4.40189 14.4253 3.45521 13.4584H5.66663C5.85449 13.4584 6.03466 13.3838 6.16749 13.2509C6.30033 13.1181 6.37496 12.9379 6.37496 12.7501C6.37496 12.5622 6.30033 12.382 6.16749 12.2492C6.03466 12.1164 5.85449 12.0417 5.66663 12.0417H2.732C2.55924 12.0416 2.38815 12.0756 2.22852 12.1417C2.06889 12.2077 1.92385 12.3046 1.80168 12.4268C1.67952 12.5489 1.58263 12.694 1.51656 12.8536C1.45049 13.0132 1.41653 13.1843 1.41663 13.3571V16.2917C1.41663 16.4796 1.49125 16.6598 1.62409 16.7926C1.75693 16.9254 1.9371 17.0001 2.12496 17.0001C2.31282 17.0001 2.49299 16.9254 2.62583 16.7926C2.75867 16.6598 2.83329 16.4796 2.83329 16.2917V14.8198C4.00405 15.8742 5.44521 16.5819 6.99539 16.8635C8.54557 17.1452 10.1436 16.9898 11.6104 16.4147C13.0772 15.8395 14.355 14.8674 15.3007 13.6072C16.2463 12.347 16.8224 10.8484 16.9645 9.27922C16.9737 9.18058 16.9622 9.08112 16.9308 8.98717C16.8994 8.89321 16.8487 8.80684 16.7821 8.73353C16.7155 8.66023 16.6343 8.60162 16.5437 8.56142C16.4532 8.52122 16.356 8.50032 16.2569 8.50006Z" fill="black"/>
</g>
<defs>
<clipPath id="clip0_47_574">
<rect width="17" height="17" fill="white"/>
</clipPath>
</defs>
</svg>
