<svg width="21" height="21" viewBox="0 0 21 21" fill="none" xmlns="http://www.w3.org/2000/svg">
<path d="M20.7558 19.5773L15.7817 14.6032C17.1372 12.9453 17.8037 10.8299 17.6432 8.69445C17.4828 6.55901 16.5077 4.56693 14.9197 3.13025C13.3316 1.69358 11.2522 0.922229 9.11137 0.975755C6.97058 1.02928 4.93225 1.90359 3.41801 3.41783C1.90377 4.93207 1.02946 6.97039 0.975938 9.11119C0.922412 11.252 1.69376 13.3314 3.13044 14.9195C4.56711 16.5075 6.55919 17.4826 8.69464 17.643C10.8301 17.8035 12.9455 17.137 14.6033 15.7815L19.5775 20.7557C19.7347 20.9075 19.9452 20.9914 20.1637 20.9895C20.3822 20.9876 20.5912 20.9 20.7457 20.7455C20.9002 20.591 20.9878 20.382 20.9897 20.1635C20.9916 19.945 20.9076 19.7345 20.7558 19.5773ZM9.33333 15.9998C8.01479 15.9998 6.72586 15.6088 5.62953 14.8763C4.53321 14.1437 3.67872 13.1025 3.17414 11.8844C2.66955 10.6662 2.53753 9.32576 2.79477 8.03255C3.052 6.73934 3.68694 5.55146 4.61929 4.61911C5.55164 3.68676 6.73953 3.05182 8.03273 2.79458C9.32594 2.53735 10.6664 2.66937 11.8846 3.17395C13.1027 3.67854 14.1439 4.53302 14.8765 5.62935C15.609 6.72568 16 8.01461 16 9.33315C15.998 11.1007 15.295 12.7952 14.0452 14.045C12.7954 15.2948 11.1008 15.9978 9.33333 15.9998Z" fill="black"/>
</svg>
