<svg width="18" height="15" viewBox="0 0 18 15" fill="none" xmlns="http://www.w3.org/2000/svg">
<path d="M15.75 3H3.75C3.10575 3 2.496 2.721 2.07375 2.25075C2.48625 1.79025 3.0855 1.5 3.75 1.5H17.25C17.6647 1.5 18 1.164 18 0.75C18 0.336 17.6647 0 17.25 0H3.75C1.67925 0 0 1.67925 0 3.75V11.25C0 13.3208 1.67925 15 3.75 15H15.75C16.9928 15 18 13.9928 18 12.75V5.25C18 4.00725 16.9928 3 15.75 3ZM16.5 12.75C16.5 13.1632 16.164 13.5 15.75 13.5H3.75C2.5095 13.5 1.5 12.4905 1.5 11.25V3.7485C2.1405 4.22775 2.928 4.5 3.75 4.5H15.75C16.164 4.5 16.5 4.83675 16.5 5.25V12.75ZM15 9C15 9.414 14.664 9.75 14.25 9.75C13.836 9.75 13.5 9.414 13.5 9C13.5 8.586 13.836 8.25 14.25 8.25C14.664 8.25 15 8.586 15 9Z" fill="white"/>
</svg>
